<?xml version="1.0" encoding="utf-8"?>
<!-- Generator: Adobe Illustrator 23.0.1, SVG Export Plug-In . SVG Version: 6.00 Build 0)  -->
<svg version="1.1" id="Layer_1" xmlns="http://www.w3.org/2000/svg" xmlns:xlink="http://www.w3.org/1999/xlink" x="0px" y="0px"
	 viewBox="0 0 592 246.9" style="enable-background:new 0 0 592 246.9;" xml:space="preserve">
<g>
	<g>
		<path d="M438.9,164.2c-1,0.6-1.7,0.8-2.1,1.3c-10.1,11.3-15.6,12.5-29.1,5.8c-12.8-6.4-21.9-17-31.1-27.5
			c-2.3-2.6-2.9-6.1-1.9-10.3c-9.5,0.7-18.2,2.4-27,5.5c0.8,4.1,3.4,6.6,5.3,9.4c4.9,7.2,10,14.2,15,21.4c2.5,3.5,4.6,7.1,2.3,11.6
			c-3,3.4-6.2,2.3-9.3,0.2c-5.5-3.7-10.9-7.5-16.4-11.2c-2.8-1.9-5.3-4.5-8.8-5.2c-2.8,1.6-1.1,3.8-0.8,5.6
			c1.4,11.3,0.5,22.2-3.5,32.9c-5.9,15.7-17.5,23.9-33.8,25.5c-9.7,1-19.4-0.3-28.9-3.2c-16.8-5.2-32.3-13-47-22.4
			c-11.2-7.1-22-14.7-32.3-23c-2.4-1.9-5-3.7-7.1-5.2c-11.1,0-21.5,0.2-32,0c-32.6-0.7-63.4-8.5-91.9-24.4
			c-12.3-6.8-23.5-15.1-32.4-26c-16.6-20.4-13-45.9,8.4-61.1c4.8-3.4,10.2-6,15.8-7.9c11-3.9,22.5-4.1,33.9-5.1
			c4.9-0.4,9.6-0.6,14.2-2.8c4.9-2.4,10.1-2.4,15.3-0.9c2.3,0.7,4.8,1.2,7,2.2c17.2,7.7,35.3,12.7,53.2,18.4
			c46.1,14.8,88.2,37.9,128.4,64.6c2.3,1.5,4.6,3.2,7,4.6c2.9,1.7,5.9,2.1,9-0.6c-7.8-22.8-19-43.9-34-61.6c-0.3-3,0.1-4.6,1-5.5
			c1.4-1.3,2.4-0.9,3.4-0.7c3.9,0.9,5.1,4.5,7.1,7.3c13.2,18.4,28.3,35.4,42.4,53.1c0.6,0.8,1.6,1.4,3.2,2.8
			c19.3-3.6,39.2-7.4,59.2-11.2c-0.3-5.2-3.6-7-5.9-9.5c-13.9-14.8-26.4-30.6-35.8-48.7c-2.6-5-5.2-10-5.9-15.6
			c-0.8-6.2-1.6-12.7,5.4-16.8c6.6-2.2,12.1,1.3,17.4,4.5c3.2,2,6.1,4.6,8.8,7.4c20.2,21,37.5,43.9,48.9,71c0.5,1.3,1.2,2.4,2.3,4.6
			c9.1,0,18.4-0.2,27.7,0.1c9,0.2,18,2,25.8,1.5c3-1,1.3-4.1,3.1-4c5.6-0.7,7.1,3.5,10.3,6.5c7.5,1.9,15.6,3.9,23.7,5.9
			c14.8,3.6,28.1,10.1,40.5,18.9c8,5.6,13.4,13.1,16.1,22.5c2.9,10-1.2,19.1-10.9,23.1c-8.2,3.4-16.8,4.3-25.6,3.5
			c-18.8-1.8-37-6.5-54.8-12.7c-14.5-5-28.9-10.2-43.3-15.3C445.3,165.9,442.2,164.1,438.9,164.2z M452.9,158.1
			c-0.2,0,0.9,1.2-0.3,0.3c-2.8-2.6-6-4.1-9.8-4.2C445.2,157.9,448.7,158.9,452.9,158.1z M170,166.4c0-2.6-1.4-3.7-2.7-4.8
			c-14.2-12.9-27.2-26.9-40.2-41c-16.6-18.1-30.7-37.7-38.3-62.4c-17.7-0.7-35,1.7-50.3,12c-10.5,7.1-16,17.3-14.9,30.3
			c0.7,8,4.4,14.6,9.6,20.4c11.5,13,25.9,22,41.5,29.4c19.4,9.2,40.1,13.9,61.2,16.1C147.2,167.6,158.7,168.3,170,166.4z M99.6,58.4
			c-1.9,5.5,0.5,9.2,2.3,12.8c6.2,12.1,13.4,23.6,22.1,34.1c12,14.5,25.4,27.7,38.4,41.2c6.5,6.7,13.8,12.6,20.2,18.3
			c15.2,0.6,55.3-6.1,65-10.7c0.2-2-1.4-3-2.6-4.2c-16.5-16.5-32.9-33-49.5-49.4c-2.7-2.7-5.8-5.1-8.9-7.2
			c-9.2-6.2-18.5-12.4-28-18.2c-6.8-4.2-13.6-8.5-21.6-10.3C124.9,62.2,112.6,59.9,99.6,58.4z M324.4,156.7c-4.4-3.1-8.7-6-12.5-8.7
			c-10,0.9-35.8,8-42.4,11.5c0.9,3.4,4.4,5.4,4.8,9.1c-0.7,2.6-2.2,4.3-5.4,4c-5.2-2-7.6-7.8-12.5-10.2
			c-10.8,0.4-55.3,9.4-61.4,12.7c9.9,7.1,19.3,14.1,29,20.8c12.9,8.9,26.9,15.9,41.7,21.1c8.9,3.2,18,5.2,27.6,4.8
			c19-0.8,30.7-8.9,33.9-32.3C328.8,178.8,327.9,168.1,324.4,156.7z M463.9,162.5c7.3,4.9,14,6.2,20.3,8.5
			c18.6,6.8,37.5,12.7,57.2,15.4c8.7,1.2,17.4,1.2,25.8-1.7c8.1-2.8,10.5-8.3,7.6-16.4c-2.1-6.1-5.9-11-10.9-15
			c-17.7-13.9-38.6-19.6-60.9-23.8C498.6,150.5,491.6,168.1,463.9,162.5z M301,141.5c-26.1-21.7-106.7-63.2-121.6-61.9
			c2,2.7,4.9,3.7,8,4.4c3.5,0.8,6.4,2.5,9,5c16,14.9,32.1,29.7,48.2,44.6c4.3,4,8.4,8.4,11,13.8c0.9,1.9,2.1,3.6,4.9,4.9
			C273.3,149.4,286.6,146,301,141.5z M426.3,116.6c-1.8-6.8-4.8-12.6-8-18.2c-9.6-16.6-21.7-31.4-33.6-46.3
			c-4.1-5.2-9.5-9.2-15.5-12.1c-2.3-1.1-4.7-3.1-7.9-1.1c-1.4,6.8,1.2,12.9,4.2,18.7C377,81,395,99.4,412.9,117.7
			c0.4,0.5,1.2,0.6,2,0.9C418.3,118.6,421.7,119,426.3,116.6z M494.2,129.5c-13-5-46.6-6.2-55.9-2.1c1,4.6,2,9.2,2.9,13.8
			c9.1,7.4,19.1,11.7,30.1,14.3c6.9,1.6,12.3-0.8,16.5-6C492.3,143.8,494,137.2,494.2,129.5z M432.6,152c1.3-2.9,1.2-4.3,0.2-5.4
			c-7.2-7.1-14.7-13.7-23-19.2c-8.5,1.7-17.1,0.8-25.9,4.9C400.8,139.2,416.5,145.6,432.6,152z M430,160.3
			c-14.7-6.8-29.3-13.2-45.8-19c6,9.8,22,22.6,30.3,25C421.1,168.3,424.5,167.1,430,160.3z M338.2,141.8c-3.5-0.7-6.4-0.6-8.3,2.6
			c0,4.6,2.1,7.9,5.8,10.4c3.7,2.5,7.3,5.2,11.1,7.5c3.2,2,5.9,5,11.4,6.3C351.3,158.4,345.1,149.7,338.2,141.8z M322,123.8
			c1.5,3.2,2.8,6.6,4.6,9.6c1,1.6,2.8,1.7,4.5-0.9C329.1,129.2,326.7,125.7,322,123.8z M428.7,126.9c-1.7-0.2-3-0.3-4,1
			c1.2,2.5,2.7,4.3,6.2,4.1C431,130.1,430.4,128.7,428.7,126.9z"/>
	</g>
</g>
</svg>
